<svg width="570" height="133" viewBox="0 0 570 133" fill="none" xmlns="http://www.w3.org/2000/svg">
<g filter="url(#filter0_d_117_5)">
<path d="M94.1875 57.625V100H10.25V78H22.3125V22.5625H10.25V0.5625H94.1875V40.125H78.1875L72.1875 22.5625H54.3125V38.8125H70.3125V55.1875H54.3125V78H72.1875L78.1875 57.625H94.1875ZM131.562 82.75L118.625 100H100.062V81.1875H109.438L120.688 68L109.25 52.375H101.188V33.0625H132.188L142.312 48.6875L153.812 33.0625H171V52.375H162.812L152.688 63.75L164.688 81.1875H172.875V100H143.312L131.562 82.75ZM228 124.812H181.938V105.875H190V52.375H181.938V35.625L219.938 31.75V42.375C222.062 39.4167 224.812 36.9167 228.188 34.875C231.562 32.7917 235.521 31.75 240.062 31.75C246.021 31.75 251.104 33.2917 255.312 36.375C259.521 39.4583 262.667 43.6042 264.75 48.8125C266.875 54.0208 267.938 59.8125 267.938 66.1875C267.938 72.5208 266.896 78.375 264.812 83.75C262.729 89.0417 259.562 93.2708 255.312 96.4375C251.104 99.5625 245.979 101.125 239.938 101.125C235.729 101.125 231.896 100.312 228.438 98.6875C225.021 97.0208 222.188 94.9792 219.938 92.5625V106H228V124.812ZM228.938 82.875C232.688 82.875 235.458 81.375 237.25 78.375C239.042 75.375 239.938 71.4375 239.938 66.5625C239.938 61.5625 238.958 57.5625 237 54.5625C235.042 51.5625 232.479 50.0625 229.312 50.0625C227.188 50.0625 225.271 50.6042 223.562 51.6875C221.854 52.7292 220.646 54.1042 219.938 55.8125V77.5C221.812 81.0833 224.812 82.875 228.938 82.875ZM328.812 81.1875V100H278.25V81.1875H289.25V23.5625H278.25V6.5625L319.188 2.4375V81.1875H328.812ZM376.188 101.125C368.604 101.125 362 99.7292 356.375 96.9375C350.667 94.1875 346.229 90.1458 343.062 84.8125C339.896 79.4792 338.312 73.1458 338.312 65.8125C338.312 58.5208 339.896 52.3333 343.062 47.25C346.229 42.125 350.667 38.2708 356.375 35.6875C362.083 33.0625 368.688 31.75 376.188 31.75C383.896 31.75 390.583 33.0833 396.25 35.75C401.958 38.4167 406.375 42.2917 409.5 47.375C412.625 52.4167 414.188 58.5625 414.188 65.8125C414.188 73.1458 412.625 79.4792 409.5 84.8125C406.333 90.1458 401.875 94.2083 396.125 97C390.417 99.75 383.771 101.125 376.188 101.125ZM376.188 82.875C378.938 82.875 380.979 81.5208 382.312 78.8125C383.604 76.1875 384.25 71.8542 384.25 65.8125C384.25 60.2708 383.604 56.2708 382.312 53.8125C381.062 51.3125 379.021 50.0625 376.188 50.0625C373.479 50.0625 371.479 51.3125 370.188 53.8125C368.896 56.2708 368.25 60.2708 368.25 65.8125C368.25 71.7292 368.917 76.0625 370.25 78.8125C371.583 81.5208 373.562 82.875 376.188 82.875ZM470.938 100H422.938V81.1875H431V52.375H422.938V35.5L460.938 31.75V42.625C462.271 40.5417 464.229 38.6875 466.812 37.0625C469.396 35.3958 472.146 34.1042 475.062 33.1875C478.021 32.2292 480.667 31.75 483 31.75V58.25C478.125 56.625 474.104 55.8125 470.938 55.8125C466.938 55.8125 464.271 56.9792 462.938 59.3125C461.604 61.6042 460.938 64.625 460.938 68.375V81.1875H470.938V100ZM527.938 101.125C520.188 101.125 513.458 99.6875 507.75 96.8125C502 93.9792 497.583 89.9167 494.5 84.625C491.458 79.3333 489.938 73.1458 489.938 66.0625C489.938 59.0625 491.438 52.9792 494.438 47.8125C497.396 42.6875 501.583 38.7292 507 35.9375C512.417 33.1458 518.771 31.75 526.062 31.75C532.771 31.75 538.688 33.0625 543.812 35.6875C548.938 38.3542 552.896 42.125 555.688 47C558.521 51.875 559.938 57.5625 559.938 64.0625C559.938 66.3125 559.604 68.4375 558.938 70.4375H520C520 74.3542 521.479 77.5 524.438 79.875C527.396 82.2083 530.958 83.375 535.125 83.375C538.292 83.375 541.771 82.8333 545.562 81.75C549.354 80.625 553.167 78.8958 557 76.5625L558.062 76.9375V93.75C553.771 96.2083 549.354 98.0625 544.812 99.3125C540.312 100.521 534.688 101.125 527.938 101.125ZM520 57.625V59.4375H536V58.125C536 55.1667 535.312 52.625 533.938 50.5C532.604 48.3333 530.604 47.25 527.938 47.25C525.729 47.25 523.854 48.3542 522.312 50.5625C520.771 52.7292 520 55.0833 520 57.625Z" fill="white"/>
<path d="M4.25 107.812H565.688V110.938H4.25V107.812Z" fill="white"/>
</g>
<defs>
<filter id="filter0_d_117_5" x="0.25" y="0.5625" width="569.438" height="132.25" filterUnits="userSpaceOnUse" color-interpolation-filters="sRGB">
<feFlood flood-opacity="0" result="BackgroundImageFix"/>
<feColorMatrix in="SourceAlpha" type="matrix" values="0 0 0 0 0 0 0 0 0 0 0 0 0 0 0 0 0 0 127 0" result="hardAlpha"/>
<feOffset dy="4"/>
<feGaussianBlur stdDeviation="2"/>
<feComposite in2="hardAlpha" operator="out"/>
<feColorMatrix type="matrix" values="0 0 0 0 0 0 0 0 0 0 0 0 0 0 0 0 0 0 0.25 0"/>
<feBlend mode="normal" in2="BackgroundImageFix" result="effect1_dropShadow_117_5"/>
<feBlend mode="normal" in="SourceGraphic" in2="effect1_dropShadow_117_5" result="shape"/>
</filter>
</defs>
</svg>
