<svg width="635" height="310" viewBox="0 0 635 310" fill="none" xmlns="http://www.w3.org/2000/svg">
<g filter="url(#filter0_d_124_3)">
<path d="M205.756 232.176C201.831 227.824 199.868 222.299 199.868 215.6C199.868 208.901 201.831 203.397 205.756 199.088C209.682 194.736 214.866 192.56 221.308 192.56C227.751 192.56 232.935 194.736 236.86 199.088C240.786 203.397 242.748 208.901 242.748 215.6C242.748 222.299 240.786 227.824 236.86 232.176C232.935 236.485 227.751 238.64 221.308 238.64C214.866 238.64 209.682 236.485 205.756 232.176ZM207.164 200.432C203.58 204.4 201.788 209.456 201.788 215.6C201.788 221.744 203.58 226.8 207.164 230.768C210.748 234.736 215.463 236.72 221.308 236.72C227.154 236.72 231.868 234.736 235.452 230.768C239.036 226.8 240.828 221.744 240.828 215.6C240.828 209.456 239.036 204.4 235.452 200.432C231.868 196.464 227.154 194.48 221.308 194.48C215.463 194.48 210.748 196.464 207.164 200.432ZM268.31 236.08H272.79C273.43 236.08 273.75 235.76 273.75 235.12V196.08C273.75 195.44 273.43 195.12 272.79 195.12H268.31C267.67 195.12 267.35 194.8 267.35 194.16C267.35 193.52 267.67 193.2 268.31 193.2H275.35C276.118 193.2 276.652 193.52 276.95 194.16L294.87 233.84C295.297 234.693 295.724 234.693 296.15 233.84L314.07 194.16C314.369 193.52 314.902 193.2 315.67 193.2H322.71C323.35 193.2 323.67 193.52 323.67 194.16C323.67 194.8 323.35 195.12 322.71 195.12H318.23C317.59 195.12 317.27 195.44 317.27 196.08V235.12C317.27 235.76 317.59 236.08 318.23 236.08H322.71C323.35 236.08 323.67 236.4 323.67 237.04C323.67 237.68 323.35 238 322.71 238H310.55C309.91 238 309.59 237.68 309.59 237.04C309.59 236.4 309.91 236.08 310.55 236.08H314.39C315.03 236.08 315.35 235.76 315.35 235.12V197.68C315.35 197.253 315.265 197.083 315.094 197.168C315.009 197.168 314.924 197.232 314.838 197.36L296.918 237.04C296.577 237.68 296.108 238 295.51 238C294.913 238 294.444 237.68 294.102 237.04L276.182 197.36C276.012 197.104 275.884 197.04 275.798 197.168C275.713 197.296 275.67 197.467 275.67 197.68V235.12C275.67 235.76 275.99 236.08 276.63 236.08H280.47C281.11 236.08 281.43 236.4 281.43 237.04C281.43 237.68 281.11 238 280.47 238H268.31C267.67 238 267.35 237.68 267.35 237.04C267.35 236.4 267.67 236.08 268.31 236.08ZM329.346 193.2H341.506C342.146 193.2 342.466 193.52 342.466 194.16C342.466 194.8 342.146 195.12 341.506 195.12H337.666C337.026 195.12 336.706 195.44 336.706 196.08V222C336.706 226.437 338.092 230 340.866 232.688C343.639 235.376 347.159 236.72 351.426 236.72C355.692 236.72 359.212 235.376 361.986 232.688C364.759 230 366.146 226.437 366.146 222V196.08C366.146 195.44 365.826 195.12 365.186 195.12H361.346C360.706 195.12 360.386 194.8 360.386 194.16C360.386 193.52 360.706 193.2 361.346 193.2H373.506C374.146 193.2 374.466 193.52 374.466 194.16C374.466 194.8 374.146 195.12 373.506 195.12H369.026C368.386 195.12 368.066 195.44 368.066 196.08V222C368.066 226.907 366.487 230.917 363.33 234.032C360.215 237.104 356.247 238.64 351.426 238.64C346.604 238.64 342.615 237.104 339.458 234.032C336.343 230.917 334.786 226.907 334.786 222V196.08C334.786 195.44 334.466 195.12 333.826 195.12H329.346C328.706 195.12 328.386 194.8 328.386 194.16C328.386 193.52 328.706 193.2 329.346 193.2ZM380.185 236.08H384.665C385.305 236.08 385.625 235.76 385.625 235.12V196.08C385.625 195.44 385.305 195.12 384.665 195.12H380.185C379.545 195.12 379.225 194.8 379.225 194.16C379.225 193.52 379.545 193.2 380.185 193.2H387.225C387.908 193.2 388.441 193.52 388.825 194.16L415.065 234.16C415.151 234.331 415.279 234.416 415.449 234.416C415.62 234.373 415.705 234.181 415.705 233.84V196.08C415.705 195.44 415.385 195.12 414.745 195.12H410.905C410.265 195.12 409.945 194.8 409.945 194.16C409.945 193.52 410.265 193.2 410.905 193.2H423.065C423.705 193.2 424.025 193.52 424.025 194.16C424.025 194.8 423.705 195.12 423.065 195.12H418.585C417.945 195.12 417.625 195.44 417.625 196.08V235.12C417.625 235.76 417.945 236.08 418.585 236.08H423.065C423.705 236.08 424.025 236.4 424.025 237.04C424.025 237.68 423.705 238 423.065 238H416.025C415.343 238 414.809 237.68 414.425 237.04L388.185 197.04C388.1 196.869 387.972 196.805 387.801 196.848C387.631 196.848 387.545 197.019 387.545 197.36V235.12C387.545 235.76 387.865 236.08 388.505 236.08H392.345C392.985 236.08 393.305 236.4 393.305 237.04C393.305 237.68 392.985 238 392.345 238H380.185C379.545 238 379.225 237.68 379.225 237.04C379.225 236.4 379.545 236.08 380.185 236.08ZM430.435 238C429.795 238 429.475 237.68 429.475 237.04C429.475 236.4 429.795 236.08 430.435 236.08H434.915C435.555 236.08 435.875 235.76 435.875 235.12V196.08C435.875 195.44 435.555 195.12 434.915 195.12H430.435C429.795 195.12 429.475 194.8 429.475 194.16C429.475 193.52 429.795 193.2 430.435 193.2H448.355C454.798 193.2 459.982 195.333 463.907 199.6C467.833 203.867 469.795 209.2 469.795 215.6C469.795 222 467.833 227.333 463.907 231.6C459.982 235.867 454.798 238 448.355 238H430.435ZM437.795 235.12C437.795 235.76 438.115 236.08 438.755 236.08H448.355C454.158 236.08 458.851 234.139 462.435 230.256C466.062 226.373 467.875 221.488 467.875 215.6C467.875 209.712 466.062 204.827 462.435 200.944C458.851 197.061 454.158 195.12 448.355 195.12H438.755C438.115 195.12 437.795 195.44 437.795 196.08V235.12ZM483.131 232.176C479.206 227.824 477.243 222.299 477.243 215.6C477.243 208.901 479.206 203.397 483.131 199.088C487.057 194.736 492.241 192.56 498.683 192.56C505.126 192.56 510.31 194.736 514.235 199.088C518.161 203.397 520.123 208.901 520.123 215.6C520.123 222.299 518.161 227.824 514.235 232.176C510.31 236.485 505.126 238.64 498.683 238.64C492.241 238.64 487.057 236.485 483.131 232.176ZM484.539 200.432C480.955 204.4 479.163 209.456 479.163 215.6C479.163 221.744 480.955 226.8 484.539 230.768C488.123 234.736 492.838 236.72 498.683 236.72C504.529 236.72 509.243 234.736 512.827 230.768C516.411 226.8 518.203 221.744 518.203 215.6C518.203 209.456 516.411 204.4 512.827 200.432C509.243 196.464 504.529 194.48 498.683 194.48C492.838 194.48 488.123 196.464 484.539 200.432Z" fill="white"/>
<path d="M196.156 244.4H523.835V247.6H196.156V244.4Z" fill="white"/>
</g>
<g filter="url(#filter1_d_124_3)">
<path d="M94.1875 94.625V137H10.25V115H22.3125V59.5625H10.25V37.5625H94.1875V77.125H78.1875L72.1875 59.5625H54.3125V75.8125H70.3125V92.1875H54.3125V115H72.1875L78.1875 94.625H94.1875ZM131.562 119.75L118.625 137H100.062V118.188H109.438L120.688 105L109.25 89.375H101.188V70.0625H132.188L142.312 85.6875L153.812 70.0625H171V89.375H162.812L152.688 100.75L164.688 118.188H172.875V137H143.312L131.562 119.75ZM228 161.812H181.938V142.875H190V89.375H181.938V72.625L219.938 68.75V79.375C222.062 76.4167 224.812 73.9167 228.188 71.875C231.562 69.7917 235.521 68.75 240.062 68.75C246.021 68.75 251.104 70.2917 255.312 73.375C259.521 76.4583 262.667 80.6042 264.75 85.8125C266.875 91.0208 267.938 96.8125 267.938 103.188C267.938 109.521 266.896 115.375 264.812 120.75C262.729 126.042 259.562 130.271 255.312 133.438C251.104 136.562 245.979 138.125 239.938 138.125C235.729 138.125 231.896 137.312 228.438 135.688C225.021 134.021 222.188 131.979 219.938 129.562V143H228V161.812ZM228.938 119.875C232.688 119.875 235.458 118.375 237.25 115.375C239.042 112.375 239.938 108.438 239.938 103.562C239.938 98.5625 238.958 94.5625 237 91.5625C235.042 88.5625 232.479 87.0625 229.312 87.0625C227.188 87.0625 225.271 87.6042 223.562 88.6875C221.854 89.7292 220.646 91.1042 219.938 92.8125V114.5C221.812 118.083 224.812 119.875 228.938 119.875ZM328.812 118.188V137H278.25V118.188H289.25V60.5625H278.25V43.5625L319.188 39.4375V118.188H328.812ZM376.188 138.125C368.604 138.125 362 136.729 356.375 133.938C350.667 131.188 346.229 127.146 343.062 121.812C339.896 116.479 338.312 110.146 338.312 102.812C338.312 95.5208 339.896 89.3333 343.062 84.25C346.229 79.125 350.667 75.2708 356.375 72.6875C362.083 70.0625 368.688 68.75 376.188 68.75C383.896 68.75 390.583 70.0833 396.25 72.75C401.958 75.4167 406.375 79.2917 409.5 84.375C412.625 89.4167 414.188 95.5625 414.188 102.812C414.188 110.146 412.625 116.479 409.5 121.812C406.333 127.146 401.875 131.208 396.125 134C390.417 136.75 383.771 138.125 376.188 138.125ZM376.188 119.875C378.938 119.875 380.979 118.521 382.312 115.812C383.604 113.188 384.25 108.854 384.25 102.812C384.25 97.2708 383.604 93.2708 382.312 90.8125C381.062 88.3125 379.021 87.0625 376.188 87.0625C373.479 87.0625 371.479 88.3125 370.188 90.8125C368.896 93.2708 368.25 97.2708 368.25 102.812C368.25 108.729 368.917 113.062 370.25 115.812C371.583 118.521 373.562 119.875 376.188 119.875ZM470.938 137H422.938V118.188H431V89.375H422.938V72.5L460.938 68.75V79.625C462.271 77.5417 464.229 75.6875 466.812 74.0625C469.396 72.3958 472.146 71.1042 475.062 70.1875C478.021 69.2292 480.667 68.75 483 68.75V95.25C478.125 93.625 474.104 92.8125 470.938 92.8125C466.938 92.8125 464.271 93.9792 462.938 96.3125C461.604 98.6042 460.938 101.625 460.938 105.375V118.188H470.938V137ZM527.938 138.125C520.188 138.125 513.458 136.688 507.75 133.812C502 130.979 497.583 126.917 494.5 121.625C491.458 116.333 489.938 110.146 489.938 103.062C489.938 96.0625 491.438 89.9792 494.438 84.8125C497.396 79.6875 501.583 75.7292 507 72.9375C512.417 70.1458 518.771 68.75 526.062 68.75C532.771 68.75 538.688 70.0625 543.812 72.6875C548.938 75.3542 552.896 79.125 555.688 84C558.521 88.875 559.938 94.5625 559.938 101.062C559.938 103.312 559.604 105.438 558.938 107.438H520C520 111.354 521.479 114.5 524.438 116.875C527.396 119.208 530.958 120.375 535.125 120.375C538.292 120.375 541.771 119.833 545.562 118.75C549.354 117.625 553.167 115.896 557 113.562L558.062 113.938V130.75C553.771 133.208 549.354 135.062 544.812 136.312C540.312 137.521 534.688 138.125 527.938 138.125ZM520 94.625V96.4375H536V95.125C536 92.1667 535.312 89.625 533.938 87.5C532.604 85.3333 530.604 84.25 527.938 84.25C525.729 84.25 523.854 85.3542 522.312 87.5625C520.771 89.7292 520 92.0833 520 94.625Z" fill="white"/>
<path d="M4.25 144.812H565.688V147.938H4.25V144.812Z" fill="white"/>
</g>
<defs>
<filter id="filter0_d_124_3" x="192.156" y="192.56" width="335.679" height="63.04" filterUnits="userSpaceOnUse" color-interpolation-filters="sRGB">
<feFlood flood-opacity="0" result="BackgroundImageFix"/>
<feColorMatrix in="SourceAlpha" type="matrix" values="0 0 0 0 0 0 0 0 0 0 0 0 0 0 0 0 0 0 127 0" result="hardAlpha"/>
<feOffset dy="4"/>
<feGaussianBlur stdDeviation="2"/>
<feComposite in2="hardAlpha" operator="out"/>
<feColorMatrix type="matrix" values="0 0 0 0 0 0 0 0 0 0 0 0 0 0 0 0 0 0 0.25 0"/>
<feBlend mode="normal" in2="BackgroundImageFix" result="effect1_dropShadow_124_3"/>
<feBlend mode="normal" in="SourceGraphic" in2="effect1_dropShadow_124_3" result="shape"/>
</filter>
<filter id="filter1_d_124_3" x="0.25" y="37.5625" width="569.438" height="132.25" filterUnits="userSpaceOnUse" color-interpolation-filters="sRGB">
<feFlood flood-opacity="0" result="BackgroundImageFix"/>
<feColorMatrix in="SourceAlpha" type="matrix" values="0 0 0 0 0 0 0 0 0 0 0 0 0 0 0 0 0 0 127 0" result="hardAlpha"/>
<feOffset dy="4"/>
<feGaussianBlur stdDeviation="2"/>
<feComposite in2="hardAlpha" operator="out"/>
<feColorMatrix type="matrix" values="0 0 0 0 0 0 0 0 0 0 0 0 0 0 0 0 0 0 0.25 0"/>
<feBlend mode="normal" in2="BackgroundImageFix" result="effect1_dropShadow_124_3"/>
<feBlend mode="normal" in="SourceGraphic" in2="effect1_dropShadow_124_3" result="shape"/>
</filter>
</defs>
</svg>
